<svg class="svg-icon" style="width: 1em;height: 1em;vertical-align: middle;fill: currentColor;overflow: hidden;" viewBox="0 0 1024 1024" version="1.1" xmlns="http://www.w3.org/2000/svg"><path d="M800 256h-96v-80a48 48 0 0 0-96 0v80H416v-80a48 48 0 0 0-96 0v80h-96a96 96 0 0 0-96 96V800a96 96 0 0 0 96 96H800a96 96 0 0 0 96-96V352a96 96 0 0 0-96-96z" fill="#3F86FF" /><path d="M128 384h768v64H128zM224 640h192a32 32 0 1 0 0-64H224a32 32 0 1 0 0 64zM512 704H224a32 32 0 0 0 0 64h288a32 32 0 1 0 0-64z" fill="#FFFFFF" opacity=".75" /><path d="M801.4 712.8a24.1 24.1 0 0 0-32 11.3 48.8 48.8 0 0 1-93-20.9v-31.5a86.6 86.6 0 0 0 62.5-83v-20.8a24 24 0 0 0-48 0v20.8a38.5 38.5 0 1 1-76.9 0v-20.8a24 24 0 0 0-48 0v20.8a86.5 86.5 0 0 0 62.4 83v31.5a96.9 96.9 0 0 0 184.4 41.5 23.9 23.9 0 0 0-11.4-31.9z" fill="#FFFFFF" opacity=".75" /><path d="M798.1 758.4a65.6 65.6 0 1 1 65.7-65.6 65.6 65.6 0 0 1-65.7 65.6z m0-83.2a17.6 17.6 0 1 0 17.7 17.6 17.6 17.6 0 0 0-17.7-17.6z" fill="#FFFFFF" /></svg>